# xmcd
#
# Track frame offsets: 
#        150
#        13229
#        36630
#        54017
#        68115
#        93825
#        119215
#        132969
#        153498
#        165342
#        191911
#
# Disc length: 2752 seconds
#
# Revision: 2
# Processed by: cddbd v1.5.2PL0 Copyright (c) Steve Scherf et al.
# Submitted via: ExactAudioCopy v0.95b4
#
DISCID=970abe0b
DTITLE=Nina Simone - You Can Have Him
DYEAR=2001
DGENRE=Blues
TTITLE0=Cotton Eyed Joe
TTITLE1=Porgy
TTITLE2=Forbidden Fruit
TTITLE3=Gin House Blues
TTITLE4=Trouble In Mind
TTITLE5=Summertime
TTITLE6=The Other Woman
TTITLE7=Liza Jane
TTITLE8=Work Song
TTITLE9=You Can Have Him
TTITLE10=Exactly Like You
EXTD=YEAR: 1998 ID3G: 0
EXTT0=
EXTT1=
EXTT2=
EXTT3=
EXTT4=
EXTT5=
EXTT6=
EXTT7=
EXTT8=
EXTT9=
EXTT10=
PLAYORDER=
